<svg aria-hidden="true" style="width:0;height:0;position:absolute;overflow:hidden" xmlns="http://www.w3.org/2000/svg"><defs><symbol id="icon-banner-circle" viewBox="0 0 32 32"><path fill="#fff" style="fill:var(--color1,#fff)" d="M32 16c0 8.837-7.163 16-16 16S0 24.837 0 16 7.163 0 16 0s16 7.163 16 16z"/></symbol><symbol id="icon-banner-rectangle" viewBox="0 0 80 32"><path fill="#fff" style="fill:var(--color1,#fff)" d="M16 0h48c8.837 0 16 7.163 16 16s-7.163 16-16 16H16C7.163 32 0 24.837 0 16S7.163 0 16 0z"/></symbol><symbol id="icon-finger-down-icon" viewBox="0 0 32 32"><path fill="none" stroke="#86e543" style="stroke:var(--color2,#86e543)" stroke-linejoin="round" stroke-linecap="round" stroke-width="2.667" d="M2.787 17.889a1.333 1.333 0 0 0 1.328 1.444H6.666c.736 0 1.333-.597 1.333-1.333v0V4.667c0-.736-.597-1.333-1.333-1.333v0h-1.44c-.697 0-1.27.535-1.328 1.218v.005L2.787 17.89h-.001zM12 17.75c0 .557.347 1.056.85 1.293 1.099.519 2.972 1.561 3.817 2.969 1.089 1.816 1.293 5.097 1.327 5.848.005.105.003.211.017.315.18 1.302 2.693-.219 3.657-1.827.523-.872.59-2.018.535-2.913-.06-.957-.34-1.882-.615-2.801l-.587-1.958h7.238a1.334 1.334 0 0 0 1.281-1.705l.002.009-3.58-12.677a1.336 1.336 0 0 0-1.283-.971H13.334c-.736 0-1.333.597-1.333 1.333v13.083z"/></symbol><symbol id="icon-finger-up-icon" viewBox="0 0 32 32"><path stroke-linejoin="round" stroke-linecap="round" stroke-width="2.667" d="M2.787 14.111a1.333 1.333 0 0 1 1.328-1.444H6.666c.736 0 1.333.597 1.333 1.333v13.333c0 .736-.597 1.333-1.333 1.333h-1.44c-.697 0-1.27-.535-1.328-1.218v-.005L2.787 14.11h-.001zM12 14.25c0-.557.347-1.056.85-1.293 1.099-.519 2.972-1.561 3.817-2.969 1.089-1.816 1.293-5.097 1.327-5.848.005-.105.003-.211.017-.315.18-1.302 2.693.219 3.657 1.827.523.872.59 2.018.535 2.913-.06.957-.34 1.882-.615 2.801l-.587 1.958h7.238a1.334 1.334 0 0 1 1.281 1.705l.002-.009-3.58 12.677a1.336 1.336 0 0 1-1.283.971H13.334a1.333 1.333 0 0 1-1.333-1.333V14.252z"/></symbol><symbol id="icon-hero-bgn" viewBox="0 0 47 32"><path fill="#81bb43" style="fill:var(--color3,#81bb43)" opacity=".25" d="M30.828 28.486c-3.561 2.182-8.22 1.028-10.495 2.055s-4.797-.224-7.413-1.615c-2.489-1.324-3.009-3.376-5.284-4.917s-1.541-9.321-1.541-13.431 11.743-6.312 15.633-7.633S32.15 4.927 34.205 7.202s5.138 11.523 3.23 12.844c-1.908 1.321-3.037 6.254-6.606 8.44z"/><path style="fill:var(--color4,#000)" opacity=".25" d="M31.48 13.284c.12-.444.975-.66.975-.66s.141.444 0 .66l-.172.172s.106.332.172.545c.08.257.329.423.201.66-.115.212-.389.074-.574.229-.148.124-.227.218-.287.402-.151.464.742.58.66 1.061a.755.755 0 0 1-.172.401c-.139.172-.372.099-.488.287-.129.21.102.407 0 .631a.634.634 0 0 1-.316.344c-.219.114-.465.182-.631 0-.151-.166-.081-.365 0-.574.075-.193.294-.201.344-.402.027-.109 0-.287 0-.287s-.273-.207-.344-.401c-.069-.189 0-.516 0-.516s.196-.331.143-.545c-.05-.2-.4-.203-.344-.402.044-.156.344-.229.344-.229l.803-.43s-.417-.57-.316-.947z"/><path fill="#86c23d" style="fill:var(--color5,#86c23d)" opacity=".25" d="M15.469 20.667c.245.389-.175 1.164-.175 1.164s-.423-.197-.486-.447l-.01-.243-.518-.242c-.243-.115-.534-.044-.621-.299-.078-.228.209-.337.219-.578a.787.787 0 0 0-.101-.483c-.24-.425-.93.154-1.228-.233a.758.758 0 0 1-.179-.398c-.032-.218.179-.34.119-.553-.067-.237-.369-.2-.464-.427a.636.636 0 0 1-.04-.465c.064-.238.181-.466.427-.464.224.001.323.187.422.388.091.185-.051.353.063.525.062.094.211.194.211.194s.338-.061.528.018c.186.077.38.349.38.349s.111.369.304.474c.181.099.42-.157.529.018.085.137-.064.409-.064.409l-.227.882s.702.079.91.409z"/><path style="fill:var(--color4,#000)" opacity=".25" d="M7.644 19.776c-.093-.887.225-2.271.225-2.271s.148 1.469.702 2.164c.136.171.252.233.385.406.256.334.469.97.469.97l.622.182c.244.204.092.507.277.767.275.385.752.246 1.04.622.339.441.615.941.293 1.394-.374.525-1.056.148-1.647-.11-.685-.298-.892-.773-1.316-1.388-.65-.941-.93-1.597-1.05-2.734z"/><path fill="#3aaf44" style="fill:var(--color6,#3aaf44)" opacity=".25" d="M26.72 8.36c-.791.136-1.913.749-1.913.749s1.309-.23 2.046.08c.181.076.263.162.446.235.352.14.954.17.954.17l.309.495c.236.162.462-.044.732.053.401.144.397.591.792.749.465.186.965.304 1.279-.086.364-.452-.13-.951-.497-1.4-.425-.521-.887-.584-1.524-.802-.974-.334-1.61-.417-2.625-.243z"/><path style="fill:var(--color4,#000)" opacity=".25" d="M31.127 22.239c.252-.236.252-.58.587-.661.211-.051.55.073.55.073s.111-.358.184-.587c.165-.518.341-.786.44-1.321.13-.705-.209-1.15 0-1.835.154-.503.135-1.2.661-1.174.512.025.514.661.587 1.174s0 1.835 0 1.835c-.22.294-.807 1.028-1.248 1.321-.352.235-.147 1.37 0 1.908 0 0-.271-.029-.44 0-.866.151-.283 1.373-.734 2.128-.2.335-.322.522-.587.807-.347.374-.528.705-1.028.807-.225.046-.587 0-.587 0s-.724 1.147-1.468 1.468c-.326.14-.881.22-.881.22l-1.395.514-.661-.514c.02-.382.954-.22.954-.22l1.101-.367.44-.44.807-.661 1.101-.44 1.174-.881v-1.028H29.51l-1.101 1.028-1.248.881v-.367s-.955.015-1.395.367c-.511.409-.661 1.541-.661 1.541l-1.174 1.101h-.881c-.386-.096-.881-.514-.881-.514s-.348-.828 0-1.028c.334-.191.881.44.881.44l.881-.44s-.109-.427 0-.661l.587-.44.367-.881s-.182-.946.22-1.028c.378-.077.661.734.661.734h.661s.339-.643.734-.734h.44s.76.197 1.174 0c.404-.192.416-.565.734-.881l.587-.514s.667-.397 1.028-.734zM14.785 9.533c-.307.158-.401.489-.746.474-.217-.009-.509-.222-.509-.222s-.205.314-.338.514c-.301.453-.544.662-.786 1.149-.319.642-.114 1.163-.504 1.764-.286.442-.459 1.117-.958.948-.486-.165-.313-.776-.242-1.29s.504-1.764.504-1.764c.292-.222 1.058-.766 1.563-.928.403-.129.517-1.277.524-1.835 0 0 .252.103.423.121.874.093.65-1.243 1.29-1.845.284-.267.453-.413.786-.615.437-.264.701-.533 1.21-.494.229.017.565.161.565.161s1.011-.904 1.815-1.008c.352-.046.907.03.907.03l1.482-.111.494.675c-.125.362-.978-.05-.978-.05l-1.159.051-.544.303-.958.413-1.18.121-1.371.524-.282.988 1.129.322 1.341-.686 1.442-.504-.101.353s.922.248 1.442.03c.604-.253 1.058-1.301 1.058-1.301l1.431-.736.847.242c.345.199.706.736.706.736s.108.892-.282.988c-.373.092-.726-.665-.726-.665l-.968.182s-.012.44-.181.635l-.686.262-.595.746s-.085.96-.494.928c-.384-.03-.434-.887-.434-.887l-.635-.181s-.502.525-.907.504l-.423-.121s-.677-.398-1.129-.322c-.442.074-.556.429-.948.645l-.706.333s-.751.199-1.19.424zM14.018 27.193v-.661s-1.457-.7-1.028-1.101c.293-.274.627-.029 1.028 0 .791.058 1.264.103 1.982.44.432.203 1.028.661 1.028.661l.881.661h.661s.515-.118.807 0c.378.152.661.807.661.807s.182.478 0 .661c-.182.182-.661 0-.661 0h-1.982s.11.427 0 .661c-.233.492-1.395 0-1.395 0l-.661-.367c-.21-.308 0-.954 0-.954s-.583.172-.881 0c-.311-.179-.44-.807-.44-.807z"/><path fill="#86c23d" style="fill:var(--color5,#86c23d)" opacity=".25" d="M19.871 24.055c.41.155.827.324 1.121 0 .268-.295 0-1.019 0-1.019s.529-.139.816 0c.4.194.081.901.51 1.019.516.142.411-.845.917-1.019.339-.116.917 0 .917 0s.719.298.917 0c.132-.199 0-.612 0-.612l1.121-.612h.714l1.121-.816h.51s1.091-.092 1.325-.612c.148-.327.283-.697 0-.917-.22-.171-.442-.061-.714 0-.552.125-.58.752-1.121.917-.419.128-.716-.165-1.121 0-.34.138-.714.612-.714.612h-.51c-.38.117-.612.816-.612.816l-.917-.816h-.917c-.212.238.212.577 0 .816-.238.268-.917 0-.917 0h-1.325c-.483.125-1.121.612-1.121.612s-.682-.211-1.019 0c-.637.398.317 1.366 1.019 1.631zM28.036 12.809c-.285-.332-.57-.681-.984-.537-.376.13-.489.895-.489.895s-.531-.132-.716-.391c-.258-.362.361-.829.041-1.139-.385-.372-.766.545-1.294.455-.353-.06-.977-1.835-.977-1.835s-.488-.166-.805 0c-.212.111-.414.985-.414.985l-.984.506-.626-.342-1.375.178-.447-.244s-1.001-.442-1.456-.098c-.286.216-.582.477-.44.805.111.256.358.266.626.342.544.155.87-.382 1.424-.268.429.088.549.488.984.537.365.041.919-.195.919-.195l.447.244c.39.08.928-.423.928-.423l.794-.239.425 1.118c-.213-.917.091.108.391 0 .337-.121.805.44.805.44l1.163.635c.484.121 1.277.001 1.277.001s.497.512.895.489c.75-.044.377-1.35-.113-1.92z"/><path style="fill:var(--color4,#000)" opacity=".25" d="M23.671 14.673c.651.42.512 1.059.621 1.782.087.579 0 1.497 0 1.497s-.184.833-.621.856c-.454.023-.698-.856-.698-.856-.582-.156-.787.487-1.241.856-.643.522-.712 1.86-1.474 1.497-.699-.333.541-1.328 0-1.854-.764-.743-2.483 1.283-2.483 1.283s0 .927-.698 0 .698-1.782.698-1.782v-2.068s.607-1.408 1.474-1.711c.927-.325 1.494.414 2.483.499.754.065 1.32-.4 1.94 0z"/><path fill="#7be34a" style="fill:var(--color7,#7be34a)" opacity=".075" d="M34.752 27.104h.392l.417.384-.092.508-.251.255-.32-.073-.475-.758.329-.315zM40.477 24.414l.53-.707 1.238.354v.707l.177.324-.132.177-.133.177h-1.031l-.648-.678v-.354zM6.349 27.746l.25-.334.584.167v.334l.083.153-.125.167h-.487l-.306-.32v-.167zM42.018 7.913l.243-.352.189-.757.406-.162.865.433.352.919-.081.379-.892.541-1.081-1zM3.092 10.878l.027.355-.328.574-.601.027-.355-.219v-.383l.738-.738.519.383z"/></symbol><symbol id="icon-mob-burger-menu" viewBox="0 0 48 32"><path fill="#86e543" style="fill:var(--color2,#86e543)" d="M45.467 13.333H2.534c-1.399 0-2.533.681-2.533 1.52v.16c0 .839 1.134 1.52 2.533 1.52h42.933c1.399 0 2.533-.681 2.533-1.52v-.16c0-.839-1.134-1.52-2.533-1.52zm0 13.334H2.534c-1.399 0-2.533.681-2.533 1.52v.16c0 .839 1.134 1.52 2.533 1.52h42.933c1.399 0 2.533-.681 2.533-1.52v-.16c0-.839-1.134-1.52-2.533-1.52zm0-26.667H2.534C1.135 0 .001.681.001 1.52v.16c0 .839 1.134 1.52 2.533 1.52h42.933C46.866 3.2 48 2.519 48 1.68v-.16C48 .681 46.866 0 45.467 0z"/></symbol><symbol id="icon-mob-menu-cross" viewBox="0 0 32 32"><path d="M29.629 30.222 2.37 1.778zm0-28.444L2.37 30.222z"/><path fill="none" stroke="#86e543" style="stroke:var(--color2,#86e543)" stroke-linecap="round" stroke-width="3.556" d="M29.629 30.222 2.37 1.778m27.259 0L2.37 30.222"/></symbol><symbol id="icon-modal-close-btn" viewBox="0 0 32 32"><path fill="none" stroke="#86e543" style="stroke:var(--color2,#86e543)" stroke-linejoin="round" stroke-linecap="round" stroke-width="1.2" d="m20.5 11.5-9 9m0-9 9 9m-4.5 8c6.904 0 12.5-5.597 12.5-12.5S22.903 3.5 16 3.5C9.096 3.5 3.5 9.097 3.5 16S9.097 28.5 16 28.5z"/></symbol><symbol id="icon-polygon-form" viewBox="0 0 45 32"><path fill="#fff" style="fill:var(--color1,#fff)" d="M24.899 28.874c-.591.735-1.491 1.201-2.499 1.201s-1.908-.466-2.494-1.195l-.005-.006L1.613 5.997A3.2 3.2 0 0 1 4.113.8h36.576a3.2 3.2 0 0 1 2.491 5.203l.005-.006-18.282 22.877z"/></symbol><symbol id="icon-soc-btn" viewBox="0 0 33 32"><path fill="#fff" style="fill:var(--color1,#fff)" d="M17.149 0c8.837 0 16 7.163 16 16s-7.163 16-16 16-16-7.163-16-16 7.163-16 16-16z"/><path fill="#001414" style="fill:var(--color8,#001414)" d="M25.149 9a1 1 0 1 1-2 0 1 1 0 0 1 2 0zM17.149 23a7 7 0 1 1 0-14 7 7 0 1 1 0 14zm0-2.333a4.667 4.667 0 0 0 0-9.334 4.667 4.667 0 0 0 0 9.334z"/></symbol><symbol id="icon-soc-btn-facebook" viewBox="0 0 33 32"><path fill="#fff" style="fill:var(--color1,#fff)" d="M17.149 0c8.837 0 16 7.163 16 16s-7.163 16-16 16-16-7.163-16-16 7.163-16 16-16z"/><path fill="#001414" style="fill:var(--color8,#001414)" d="M21.149 13.181h-2.952V11.52c0-.624.481-.769.821-.769h2.083V8.01l-2.868-.009c-3.185 0-3.909 2.045-3.909 3.353v1.827h-1.841v2.827h1.84v7.993h3.875v-7.993h2.613l.339-2.827z"/></symbol><symbol id="icon-soc-btn-youtube" viewBox="0 0 33 32"><path fill="#fff" style="fill:var(--color1,#fff)" d="M17.149 0c8.837 0 16 7.163 16 16s-7.163 16-16 16-16-7.163-16-16 7.163-16 16-16z"/><path fill="#001414" style="fill:var(--color8,#001414)" d="M23.4 10.987a1.958 1.958 0 0 1 1.415 1.351c.335 1.192.335 3.68.335 3.68s0 2.487-.333 3.679c-.185.657-.727 1.153-1.416 1.329-1.247.32-6.251.32-6.251.32s-5.003 0-6.251-.32c-.689-.176-1.231-.672-1.415-1.329-.333-1.192-.333-3.68-.333-3.68s0-2.487.333-3.679a1.967 1.967 0 0 1 1.4-1.348l.014-.003c1.249-.32 6.255-.32 6.255-.32s5.003 0 6.249.32zm-7.887 2.772v4.516l4.181-2.259-4.181-2.257z"/></symbol></defs></svg>