<svg aria-hidden="true" style="position: absolute; width: 0; height: 0; overflow: hidden;" version="1.1" xmlns="http://www.w3.org/2000/svg" xmlns:xlink="http://www.w3.org/1999/xlink">
<defs>
<symbol id="icon-banner-circle" viewBox="0 0 32 32">
<path fill="#fff" style="fill: var(--color1, #fff)" d="M32 16c0 8.837-7.163 16-16 16s-16-7.163-16-16c0-8.837 7.163-16 16-16s16 7.163 16 16z"></path>
</symbol>
<symbol id="icon-banner-rectangle" viewBox="0 0 80 32">
<path fill="#fff" style="fill: var(--color1, #fff)" d="M16 0h48c8.837 0 16 7.163 16 16s-7.163 16-16 16h-48c-8.837 0-16-7.163-16-16s7.163-16 16-16z"></path>
</symbol>
<symbol id="icon-finger-down-icon" viewBox="0 0 32 32">
<path fill="none" stroke="#86e543" style="stroke: var(--color2, #86e543)" stroke-linejoin="round" stroke-linecap="round" stroke-miterlimit="4" stroke-width="2.6667" d="M2.787 17.889c-0.003 0.033-0.005 0.072-0.005 0.111 0 0.736 0.597 1.333 1.333 1.333 0 0 0.001 0 0.001 0h2.55c0.736 0 1.333-0.597 1.333-1.333v0-13.333c0-0.736-0.597-1.333-1.333-1.333v0h-1.44c-0.697 0-1.27 0.535-1.328 1.218l-0 0.005-1.111 13.333h-0.001zM12 17.75c0 0.557 0.347 1.056 0.85 1.293 1.099 0.519 2.972 1.561 3.817 2.969 1.089 1.816 1.293 5.097 1.327 5.848 0.005 0.105 0.003 0.211 0.017 0.315 0.18 1.302 2.693-0.219 3.657-1.827 0.523-0.872 0.59-2.018 0.535-2.913-0.060-0.957-0.34-1.882-0.615-2.801l-0.587-1.958h7.238c0.736-0 1.333-0.598 1.333-1.334 0-0.129-0.018-0.253-0.052-0.371l0.002 0.009-3.58-12.677c-0.163-0.565-0.676-0.971-1.283-0.971-0 0-0.001 0-0.001 0h-11.324c-0.736 0-1.333 0.597-1.333 1.333v0 13.083z"></path>
</symbol>
<symbol id="icon-finger-up-icon" viewBox="0 0 32 32">
<path stroke-linejoin="round" stroke-linecap="round" stroke-miterlimit="4" stroke-width="2.6667" d="M2.787 14.111c-0.003-0.033-0.005-0.072-0.005-0.111 0-0.736 0.597-1.333 1.333-1.333 0 0 0.001 0 0.001 0h2.55c0.736 0 1.333 0.597 1.333 1.333v0 13.333c0 0.736-0.597 1.333-1.333 1.333v0h-1.44c-0.697-0-1.27-0.535-1.328-1.218l-0-0.005-1.111-13.333h-0.001zM12 14.25c0-0.557 0.347-1.056 0.85-1.293 1.099-0.519 2.972-1.561 3.817-2.969 1.089-1.816 1.293-5.097 1.327-5.848 0.005-0.105 0.003-0.211 0.017-0.315 0.18-1.302 2.693 0.219 3.657 1.827 0.523 0.872 0.59 2.018 0.535 2.913-0.060 0.957-0.34 1.882-0.615 2.801l-0.587 1.958h7.238c0.736 0 1.333 0.598 1.333 1.334 0 0.129-0.018 0.253-0.052 0.371l0.002-0.009-3.58 12.677c-0.163 0.565-0.676 0.971-1.283 0.971-0 0-0.001 0-0.001 0h-11.324c-0.736 0-1.333-0.597-1.333-1.333v0-13.083z"></path>
</symbol>
<symbol id="icon-hero-bgn" viewBox="0 0 47 32">
<path fill="#81bb43" style="fill: var(--color3, #81bb43)" opacity="0.25" d="M30.828 28.486c-3.561 2.182-8.22 1.028-10.495 2.055s-4.797-0.224-7.413-1.615c-2.489-1.324-3.009-3.376-5.284-4.917s-1.541-9.321-1.541-13.431 11.743-6.312 15.633-7.633 10.422 1.982 12.477 4.257 5.138 11.523 3.23 12.844c-1.908 1.321-3.037 6.254-6.606 8.44z"></path>
<path fill="#000" style="fill: var(--color4, #000)" opacity="0.25" d="M31.48 13.284c0.12-0.444 0.975-0.66 0.975-0.66s0.141 0.444 0 0.66l-0.172 0.172s0.106 0.332 0.172 0.545c0.080 0.257 0.329 0.423 0.201 0.66-0.115 0.212-0.389 0.074-0.574 0.229-0.148 0.124-0.227 0.218-0.287 0.402-0.151 0.464 0.742 0.58 0.66 1.061-0.029 0.168-0.065 0.269-0.172 0.401-0.139 0.172-0.372 0.099-0.488 0.287-0.129 0.21 0.102 0.407 0 0.631-0.076 0.166-0.154 0.26-0.316 0.344-0.219 0.114-0.465 0.182-0.631 0-0.151-0.166-0.081-0.365 0-0.574 0.075-0.193 0.294-0.201 0.344-0.402 0.027-0.109 0-0.287 0-0.287s-0.273-0.207-0.344-0.401c-0.069-0.189 0-0.516 0-0.516s0.196-0.331 0.143-0.545c-0.050-0.2-0.4-0.203-0.344-0.402 0.044-0.156 0.344-0.229 0.344-0.229l0.803-0.43s-0.417-0.57-0.316-0.947z"></path>
<path fill="#86c23d" style="fill: var(--color5, #86c23d)" opacity="0.25" d="M15.469 20.667c0.245 0.389-0.175 1.164-0.175 1.164s-0.423-0.197-0.486-0.447l-0.010-0.243s-0.316-0.147-0.518-0.242c-0.243-0.115-0.534-0.044-0.621-0.299-0.078-0.228 0.209-0.337 0.219-0.578 0.009-0.192-0.007-0.315-0.101-0.483-0.24-0.425-0.93 0.154-1.228-0.233-0.104-0.135-0.154-0.23-0.179-0.398-0.032-0.218 0.179-0.34 0.119-0.553-0.067-0.237-0.369-0.2-0.464-0.427-0.071-0.168-0.087-0.289-0.040-0.465 0.064-0.238 0.181-0.466 0.427-0.464 0.224 0.001 0.323 0.187 0.422 0.388 0.091 0.185-0.051 0.353 0.063 0.525 0.062 0.094 0.211 0.194 0.211 0.194s0.338-0.061 0.528 0.018c0.186 0.077 0.38 0.349 0.38 0.349s0.111 0.369 0.304 0.474c0.181 0.099 0.42-0.157 0.529 0.018 0.085 0.137-0.064 0.409-0.064 0.409l-0.227 0.882s0.702 0.079 0.91 0.409z"></path>
<path fill="#000" style="fill: var(--color4, #000)" opacity="0.25" d="M7.644 19.776c-0.093-0.887 0.225-2.271 0.225-2.271s0.148 1.469 0.702 2.164c0.136 0.171 0.252 0.233 0.385 0.406 0.256 0.334 0.469 0.97 0.469 0.97l0.622 0.182c0.244 0.204 0.092 0.507 0.277 0.767 0.275 0.385 0.752 0.246 1.040 0.622 0.339 0.441 0.615 0.941 0.293 1.394-0.374 0.525-1.056 0.148-1.647-0.11-0.685-0.298-0.892-0.773-1.316-1.388-0.65-0.941-0.93-1.597-1.050-2.734z"></path>
<path fill="#3aaf44" style="fill: var(--color6, #3aaf44)" opacity="0.25" d="M26.72 8.36c-0.791 0.136-1.913 0.749-1.913 0.749s1.309-0.23 2.046 0.080c0.181 0.076 0.263 0.162 0.446 0.235 0.352 0.14 0.954 0.17 0.954 0.17l0.309 0.495c0.236 0.162 0.462-0.044 0.732 0.053 0.401 0.144 0.397 0.591 0.792 0.749 0.465 0.186 0.965 0.304 1.279-0.086 0.364-0.452-0.13-0.951-0.497-1.4-0.425-0.521-0.887-0.584-1.524-0.802-0.974-0.334-1.61-0.417-2.625-0.243z"></path>
<path fill="#000" style="fill: var(--color4, #000)" opacity="0.25" d="M31.127 22.239c0.252-0.236 0.252-0.58 0.587-0.661 0.211-0.051 0.55 0.073 0.55 0.073s0.111-0.358 0.184-0.587c0.165-0.518 0.341-0.786 0.44-1.321 0.13-0.705-0.209-1.15 0-1.835 0.154-0.503 0.135-1.2 0.661-1.174 0.512 0.025 0.514 0.661 0.587 1.174s0 1.835 0 1.835c-0.22 0.294-0.807 1.028-1.248 1.321-0.352 0.235-0.147 1.37 0 1.908 0 0-0.271-0.029-0.44 0-0.866 0.151-0.283 1.373-0.734 2.128-0.2 0.335-0.322 0.522-0.587 0.807-0.347 0.374-0.528 0.705-1.028 0.807-0.225 0.046-0.587 0-0.587 0s-0.724 1.147-1.468 1.468c-0.326 0.14-0.881 0.22-0.881 0.22l-1.395 0.514-0.661-0.514c0.020-0.382 0.954-0.22 0.954-0.22l1.101-0.367 0.44-0.44 0.807-0.661 1.101-0.44 1.174-0.881v-1.028h-1.174l-1.101 1.028-1.248 0.881v-0.367s-0.955 0.015-1.395 0.367c-0.511 0.409-0.661 1.541-0.661 1.541l-1.174 1.101h-0.881c-0.386-0.096-0.881-0.514-0.881-0.514s-0.348-0.828 0-1.028c0.334-0.191 0.881 0.44 0.881 0.44l0.881-0.44s-0.109-0.427 0-0.661l0.587-0.44 0.367-0.881s-0.182-0.946 0.22-1.028c0.378-0.077 0.661 0.734 0.661 0.734h0.661s0.339-0.643 0.734-0.734h0.44s0.76 0.197 1.174 0c0.404-0.192 0.416-0.565 0.734-0.881l0.587-0.514s0.667-0.397 1.028-0.734z"></path>
<path fill="#000" style="fill: var(--color4, #000)" opacity="0.25" d="M14.785 9.533c-0.307 0.158-0.401 0.489-0.746 0.474-0.217-0.009-0.509-0.222-0.509-0.222s-0.205 0.314-0.338 0.514c-0.301 0.453-0.544 0.662-0.786 1.149-0.319 0.642-0.114 1.163-0.504 1.764-0.286 0.442-0.459 1.117-0.958 0.948-0.486-0.165-0.313-0.776-0.242-1.29s0.504-1.764 0.504-1.764c0.292-0.222 1.058-0.766 1.563-0.928 0.403-0.129 0.517-1.277 0.524-1.835 0 0 0.252 0.103 0.423 0.121 0.874 0.093 0.65-1.243 1.29-1.845 0.284-0.267 0.453-0.413 0.786-0.615 0.437-0.264 0.701-0.533 1.21-0.494 0.229 0.017 0.565 0.161 0.565 0.161s1.011-0.904 1.815-1.008c0.352-0.046 0.907 0.030 0.907 0.030l1.482-0.111 0.494 0.675c-0.125 0.362-0.978-0.050-0.978-0.050l-1.159 0.051-0.544 0.303-0.958 0.413-1.18 0.121-1.371 0.524-0.282 0.988 1.129 0.322 1.341-0.686 1.442-0.504-0.101 0.353s0.922 0.248 1.442 0.030c0.604-0.253 1.058-1.301 1.058-1.301l1.431-0.736 0.847 0.242c0.345 0.199 0.706 0.736 0.706 0.736s0.108 0.892-0.282 0.988c-0.373 0.092-0.726-0.665-0.726-0.665l-0.968 0.182s-0.012 0.44-0.181 0.635l-0.686 0.262-0.595 0.746s-0.085 0.96-0.494 0.928c-0.384-0.030-0.434-0.887-0.434-0.887l-0.635-0.181s-0.502 0.525-0.907 0.504l-0.423-0.121s-0.677-0.398-1.129-0.322c-0.442 0.074-0.556 0.429-0.948 0.645l-0.706 0.333s-0.751 0.199-1.19 0.424z"></path>
<path fill="#000" style="fill: var(--color4, #000)" opacity="0.25" d="M14.018 27.193v-0.661s-1.457-0.7-1.028-1.101c0.293-0.274 0.627-0.029 1.028 0 0.791 0.058 1.264 0.103 1.982 0.44 0.432 0.203 1.028 0.661 1.028 0.661l0.881 0.661h0.661s0.515-0.118 0.807 0c0.378 0.152 0.661 0.807 0.661 0.807s0.182 0.478 0 0.661c-0.182 0.182-0.661 0-0.661 0h-1.982s0.11 0.427 0 0.661c-0.233 0.492-1.395 0-1.395 0l-0.661-0.367c-0.21-0.308 0-0.954 0-0.954s-0.583 0.172-0.881 0c-0.311-0.179-0.44-0.807-0.44-0.807z"></path>
<path fill="#86c23d" style="fill: var(--color5, #86c23d)" opacity="0.25" d="M19.871 24.055c0.41 0.155 0.827 0.324 1.121 0 0.268-0.295 0-1.019 0-1.019s0.529-0.139 0.816 0c0.4 0.194 0.081 0.901 0.51 1.019 0.516 0.142 0.411-0.845 0.917-1.019 0.339-0.116 0.917 0 0.917 0s0.719 0.298 0.917 0c0.132-0.199 0-0.612 0-0.612l1.121-0.612h0.714l1.121-0.816h0.51s1.091-0.092 1.325-0.612c0.148-0.327 0.283-0.697 0-0.917-0.22-0.171-0.442-0.061-0.714 0-0.552 0.125-0.58 0.752-1.121 0.917-0.419 0.128-0.716-0.165-1.121 0-0.34 0.138-0.714 0.612-0.714 0.612h-0.51c-0.38 0.117-0.612 0.816-0.612 0.816l-0.917-0.816h-0.917c-0.212 0.238 0.212 0.577 0 0.816-0.238 0.268-0.917 0-0.917 0h-1.325c-0.483 0.125-1.121 0.612-1.121 0.612s-0.682-0.211-1.019 0c-0.637 0.398 0.317 1.366 1.019 1.631z"></path>
<path fill="#86c23d" style="fill: var(--color5, #86c23d)" opacity="0.25" d="M28.036 12.809c-0.285-0.332-0.57-0.681-0.984-0.537-0.376 0.13-0.489 0.895-0.489 0.895s-0.531-0.132-0.716-0.391c-0.258-0.362 0.361-0.829 0.041-1.139-0.385-0.372-0.766 0.545-1.294 0.455-0.353-0.060-0.977-1.835-0.977-1.835s-0.488-0.166-0.805 0c-0.212 0.111-0.414 0.985-0.414 0.985l-0.984 0.506-0.626-0.342-1.375 0.178-0.447-0.244s-1.001-0.442-1.456-0.098c-0.286 0.216-0.582 0.477-0.44 0.805 0.111 0.256 0.358 0.266 0.626 0.342 0.544 0.155 0.87-0.382 1.424-0.268 0.429 0.088 0.549 0.488 0.984 0.537 0.365 0.041 0.919-0.195 0.919-0.195l0.447 0.244c0.39 0.080 0.928-0.423 0.928-0.423l0.794-0.239 0.425 1.118c-0.213-0.917 0.091 0.108 0.391 0 0.337-0.121 0.805 0.44 0.805 0.44l1.163 0.635c0.484 0.121 1.277 0.001 1.277 0.001s0.497 0.512 0.895 0.489c0.75-0.044 0.377-1.35-0.113-1.92z"></path>
<path fill="#000" style="fill: var(--color4, #000)" opacity="0.25" d="M23.671 14.673c0.651 0.42 0.512 1.059 0.621 1.782 0.087 0.579 0 1.497 0 1.497s-0.184 0.833-0.621 0.856c-0.454 0.023-0.698-0.856-0.698-0.856-0.582-0.156-0.787 0.487-1.241 0.856-0.643 0.522-0.712 1.86-1.474 1.497-0.699-0.333 0.541-1.328 0-1.854-0.764-0.743-2.483 1.283-2.483 1.283s0 0.927-0.698 0c-0.698-0.927 0.698-1.782 0.698-1.782v-2.068s0.607-1.408 1.474-1.711c0.927-0.325 1.494 0.414 2.483 0.499 0.754 0.065 1.32-0.4 1.94 0z"></path>
<path fill="#7be34a" style="fill: var(--color7, #7be34a)" opacity="0.075" d="M34.752 27.104h0.392l0.417 0.384-0.092 0.508-0.251 0.255-0.32-0.073-0.475-0.758 0.329-0.315z"></path>
<path fill="#7be34a" style="fill: var(--color7, #7be34a)" opacity="0.075" d="M40.477 24.414l0.53-0.707 1.238 0.354v0.707l0.177 0.324-0.132 0.177-0.133 0.177h-1.031l-0.648-0.678v-0.354z"></path>
<path fill="#7be34a" style="fill: var(--color7, #7be34a)" opacity="0.075" d="M6.349 27.746l0.25-0.334 0.584 0.167v0.334l0.083 0.153-0.125 0.167h-0.487l-0.306-0.32v-0.167z"></path>
<path fill="#7be34a" style="fill: var(--color7, #7be34a)" opacity="0.075" d="M42.018 7.913l0.243-0.352 0.189-0.757 0.406-0.162 0.865 0.433 0.352 0.919-0.081 0.379-0.892 0.541-1.081-1z"></path>
<path fill="#7be34a" style="fill: var(--color7, #7be34a)" opacity="0.075" d="M3.092 10.878l0.027 0.355-0.328 0.574-0.601 0.027-0.355-0.219v-0.383l0.738-0.738 0.519 0.383z"></path>
</symbol>
<symbol id="icon-mob-burger-menu" viewBox="0 0 48 32">
<path fill="#86e543" style="fill: var(--color2, #86e543)" d="M45.467 13.333h-42.933c-1.399 0-2.533 0.681-2.533 1.52v0.16c0 0.839 1.134 1.52 2.533 1.52h42.933c1.399 0 2.533-0.681 2.533-1.52v-0.16c0-0.839-1.134-1.52-2.533-1.52zM45.467 26.667h-42.933c-1.399 0-2.533 0.681-2.533 1.52v0.16c0 0.839 1.134 1.52 2.533 1.52h42.933c1.399 0 2.533-0.681 2.533-1.52v-0.16c0-0.839-1.134-1.52-2.533-1.52zM45.467 0h-42.933c-1.399 0-2.533 0.681-2.533 1.52v0.16c0 0.839 1.134 1.52 2.533 1.52h42.933c1.399 0 2.533-0.681 2.533-1.52v-0.16c0-0.839-1.134-1.52-2.533-1.52z"></path>
</symbol>
<symbol id="icon-mob-menu-cross" viewBox="0 0 32 32">
<path d="M29.629 30.222l-27.259-28.444zM29.629 1.778l-27.259 28.444z"></path>
<path fill="none" stroke="#86e543" style="stroke: var(--color2, #86e543)" stroke-linejoin="miter" stroke-linecap="round" stroke-miterlimit="4" stroke-width="3.5556" d="M29.629 30.222l-27.259-28.444M29.629 1.778l-27.259 28.444"></path>
</symbol>
<symbol id="icon-modal-close-btn" width="40" height="40" viewBox="0 0 42 42" fill="none" xmlns="http://www.w3.org/2000/svg">
<path d="M28.2 13.7998L13.8 28.1998M13.8 13.7998L28.2 28.1998" stroke="#86E543" stroke-width="1.5" stroke-linecap="round" stroke-linejoin="round"></path>
<path d="M21 41C32.0457 41 41 32.0457 41 21C41 9.95431 32.0457 1 21 1C9.95431 1 1 9.95431 1 21C1 32.0457 9.95431 41 21 41Z" stroke="#86E543" stroke-width="1.5" stroke-linecap="round" stroke-linejoin="round"></path>
</symbol>
<symbol id="icon-polygon-form" viewBox="0 0 45 32">
<path fill="#fff" style="fill: var(--color1, #fff)" d="M24.899 28.874c-0.591 0.735-1.491 1.201-2.499 1.201s-1.908-0.466-2.494-1.195l-0.005-0.006-18.288-22.877c-0.436-0.542-0.699-1.239-0.699-1.997 0-1.767 1.432-3.199 3.199-3.2h36.576c1.765 0.003 3.195 1.434 3.195 3.2 0 0.758-0.264 1.455-0.704 2.003l0.005-0.006-18.282 22.877z"></path>
</symbol>
<symbol id="icon-soc-btn" viewBox="0 0 33 32">
<path fill="#fff" style="fill: var(--color1, #fff)" d="M17.149 0c8.837 0 16 7.163 16 16s-7.163 16-16 16c-8.837 0-16-7.163-16-16s7.163-16 16-16z"></path>
<path fill="#001414" style="fill: var(--color8, #001414)" d="M25.149 9c0 0.552-0.448 1-1 1s-1-0.448-1-1c0-0.552 0.448-1 1-1s1 0.448 1 1z"></path>
<path fill="#001414" style="fill: var(--color8, #001414)" d="M17.149 23v0c-3.866 0-7-3.134-7-7s3.134-7 7-7v0c3.866 0 7 3.134 7 7s-3.134 7-7 7zM17.149 20.667c2.577 0 4.667-2.089 4.667-4.667s-2.089-4.667-4.667-4.667v0c-2.577 0-4.667 2.089-4.667 4.667s2.089 4.667 4.667 4.667v0z"></path>
</symbol>
<symbol id="icon-soc-btn-facebook" viewBox="0 0 33 32">
<path fill="#fff" style="fill: var(--color1, #fff)" d="M17.149 0c8.837 0 16 7.163 16 16s-7.163 16-16 16c-8.837 0-16-7.163-16-16s7.163-16 16-16z"></path>
<path fill="#001414" style="fill: var(--color8, #001414)" d="M21.149 13.181h-2.952v-1.661c0-0.624 0.481-0.769 0.821-0.769h2.083v-2.741l-2.868-0.009c-3.185 0-3.909 2.045-3.909 3.353v1.827h-1.841v2.827h1.84v7.993h3.875v-7.993h2.613l0.339-2.827z"></path>
</symbol>
<symbol id="icon-soc-btn-youtube" viewBox="0 0 33 32">
<path fill="#fff" style="fill: var(--color1, #fff)" d="M17.149 0c8.837 0 16 7.163 16 16s-7.163 16-16 16c-8.837 0-16-7.163-16-16s7.163-16 16-16z"></path>
<path fill="#001414" style="fill: var(--color8, #001414)" d="M23.4 10.987c0.689 0.175 1.231 0.693 1.415 1.351 0.335 1.192 0.335 3.68 0.335 3.68s0 2.487-0.333 3.679c-0.185 0.657-0.727 1.153-1.416 1.329-1.247 0.32-6.251 0.32-6.251 0.32s-5.003 0-6.251-0.32c-0.689-0.176-1.231-0.672-1.415-1.329-0.333-1.192-0.333-3.68-0.333-3.68s0-2.487 0.333-3.679c0.201-0.669 0.732-1.18 1.4-1.348l0.014-0.003c1.249-0.32 6.255-0.32 6.255-0.32s5.003 0 6.249 0.32zM15.513 13.759v4.516l4.181-2.259-4.181-2.257z"></path>
</symbol>
</defs>
</svg>
